<svg xmlns="http://www.w3.org/2000/svg" viewBox="0 0 24 24" fill="none" stroke="currentColor" stroke-width="2" stroke-linecap="round" stroke-linejoin="round">
  <!-- Box/Package base -->
  <path d="M21 16V8a2 2 0 0 0-1-1.73l-7-4a2 2 0 0 0-2 0l-7 4A2 2 0 0 0 3 8v8a2 2 0 0 0 1 1.73l7 4a2 2 0 0 0 2 0l7-4A2 2 0 0 0 21 16z"></path>
  <!-- Box lid/top -->
  <polyline points="3.27,6.96 12,12.01 20.73,6.96"></polyline>
  <line x1="12" y1="22.08" x2="12" y2="12"></line>
  <!-- Plus symbol -->
  <circle cx="12" cy="12" r="3" fill="currentColor" stroke="white" stroke-width="1"></circle>
  <line x1="12" y1="10" x2="12" y2="14" stroke="white" stroke-width="1.5"></line>
  <line x1="10" y1="12" x2="14" y2="12" stroke="white" stroke-width="1.5"></line>
</svg> 