<svg xmlns="http://www.w3.org/2000/svg" viewBox="0 0 48 48" fill="none">
  <!-- Background circle -->
  <circle cx="24" cy="24" r="22" fill="#34495e" stroke="#3498db" stroke-width="2"/>
  
  <!-- Gear/Settings icon -->
  <g fill="#3498db" stroke="none">
    <!-- Outer gear teeth -->
    <path d="M24 8c-1.1 0-2 .9-2 2v2.1c-1.5.4-2.9 1-4.1 1.9l-1.5-1.5c-.8-.8-2-.8-2.8 0s-.8 2 0 2.8l1.5 1.5c-.9 1.2-1.5 2.6-1.9 4.1H10c-1.1 0-2 .9-2 2s.9 2 2 2h2.1c.4 1.5 1 2.9 1.9 4.1l-1.5 1.5c-.8.8-.8 2 0 2.8s2 .8 2.8 0l1.5-1.5c1.2.9 2.6 1.5 4.1 1.9V38c0 1.1.9 2 2 2s2-.9 2-2v-2.1c1.5-.4 2.9-1 4.1-1.9l1.5 1.5c.8.8 2 .8 2.8 0s.8-2 0-2.8l-1.5-1.5c.9-1.2 1.5-2.6 1.9-4.1H38c1.1 0 2-.9 2-2s-.9-2-2-2h-2.1c-.4-1.5-1-2.9-1.9-4.1l1.5-1.5c.8-.8.8-2 0-2.8s-2-.8-2.8 0l-1.5 1.5c-1.2-.9-2.6-1.5-4.1-1.9V10c0-1.1-.9-2-2-2z"/>
    <!-- Inner circle -->
    <circle cx="24" cy="24" r="6" fill="#2c3e50"/>
    <circle cx="24" cy="24" r="3" fill="#3498db"/>
  </g>
  
  <!-- Small indicator dots -->
  <circle cx="18" cy="12" r="1" fill="#e74c3c"/>
  <circle cx="30" cy="36" r="1" fill="#f39c12"/>
  <circle cx="36" cy="18" r="1" fill="#27ae60"/>
</svg> 